M48
; DRILL file {KiCad 8.0.8} date 2025-03-19T14:51:11+0200
; FORMAT={-:-/ absolute / inch / decimal}
; #@! TF.CreationDate,2025-03-19T14:51:11+02:00
; #@! TF.GenerationSoftware,Kicad,Pcbnew,8.0.8
; #@! TF.FileFunction,Plated,1,2,PTH
FMAT,2
INCH
; #@! TA.AperFunction,Plated,PTH,ViaDrill
T1C0.0118
; #@! TA.AperFunction,Plated,PTH,ComponentDrill
T2C0.0197
; #@! TA.AperFunction,Plated,PTH,ComponentDrill
T3C0.1378
%
G90
G05
T1
X6.2662Y-3.4276
X6.3114Y-3.4492
X6.3425Y-3.4843
X6.3446Y-3.4366
X6.4724Y-3.4646
X6.4724Y-3.6969
T2
X5.4929Y-2.9584
X5.4929Y-4.1395
X5.5231Y-2.8853
X5.5231Y-3.0315
X5.5231Y-4.0664
X5.5231Y-4.2126
X5.5962Y-2.8551
X5.5962Y-3.0618
X5.5962Y-4.0362
X5.5962Y-4.2429
X5.6693Y-2.8853
X5.6693Y-3.0315
X5.6693Y-4.0664
X5.6693Y-4.2126
X5.6996Y-2.9584
X5.6996Y-4.1395
X6.6289Y-2.9774
X6.6592Y-2.9043
X6.6592Y-3.0504
X6.6626Y-4.1282
X6.6929Y-4.0551
X6.6929Y-4.2013
X6.7323Y-2.874
X6.7323Y-3.0807
X6.766Y-4.0248
X6.766Y-4.2315
X6.8054Y-2.9043
X6.8054Y-3.0504
X6.8356Y-2.9774
X6.8391Y-4.0551
X6.8391Y-4.2013
X6.8693Y-4.1282
T3
X5.5962Y-2.9584
X5.5962Y-4.1395
X6.7323Y-2.9774
X6.766Y-4.1282
M30
