%TF.GenerationSoftware,KiCad,Pcbnew,8.0.8*%
%TF.CreationDate,2025-03-19T14:50:45+02:00*%
%TF.ProjectId,Pcb_intro_timer,5063625f-696e-4747-926f-5f74696d6572,rev?*%
%TF.SameCoordinates,Original*%
%TF.FileFunction,Legend,Top*%
%TF.FilePolarity,Positive*%
%FSLAX46Y46*%
G04 Gerber Fmt 4.6, Leading zero omitted, Abs format (unit mm)*
G04 Created by KiCad (PCBNEW 8.0.8) date 2025-03-19 14:50:45*
%MOMM*%
%LPD*%
G01*
G04 APERTURE LIST*
%ADD10C,0.150000*%
%ADD11C,0.120000*%
G04 APERTURE END LIST*
D10*
X157920833Y-92804819D02*
X157587500Y-92328628D01*
X157349405Y-92804819D02*
X157349405Y-91804819D01*
X157349405Y-91804819D02*
X157730357Y-91804819D01*
X157730357Y-91804819D02*
X157825595Y-91852438D01*
X157825595Y-91852438D02*
X157873214Y-91900057D01*
X157873214Y-91900057D02*
X157920833Y-91995295D01*
X157920833Y-91995295D02*
X157920833Y-92138152D01*
X157920833Y-92138152D02*
X157873214Y-92233390D01*
X157873214Y-92233390D02*
X157825595Y-92281009D01*
X157825595Y-92281009D02*
X157730357Y-92328628D01*
X157730357Y-92328628D02*
X157349405Y-92328628D01*
X158254167Y-91804819D02*
X158873214Y-91804819D01*
X158873214Y-91804819D02*
X158539881Y-92185771D01*
X158539881Y-92185771D02*
X158682738Y-92185771D01*
X158682738Y-92185771D02*
X158777976Y-92233390D01*
X158777976Y-92233390D02*
X158825595Y-92281009D01*
X158825595Y-92281009D02*
X158873214Y-92376247D01*
X158873214Y-92376247D02*
X158873214Y-92614342D01*
X158873214Y-92614342D02*
X158825595Y-92709580D01*
X158825595Y-92709580D02*
X158777976Y-92757200D01*
X158777976Y-92757200D02*
X158682738Y-92804819D01*
X158682738Y-92804819D02*
X158397024Y-92804819D01*
X158397024Y-92804819D02*
X158301786Y-92757200D01*
X158301786Y-92757200D02*
X158254167Y-92709580D01*
X170833333Y-94804819D02*
X170833333Y-93804819D01*
X170833333Y-94281009D02*
X171404761Y-94281009D01*
X171404761Y-94804819D02*
X171404761Y-93804819D01*
X172357142Y-94804819D02*
X171880952Y-94804819D01*
X171880952Y-94804819D02*
X171880952Y-93804819D01*
X172642857Y-93900057D02*
X172690476Y-93852438D01*
X172690476Y-93852438D02*
X172785714Y-93804819D01*
X172785714Y-93804819D02*
X173023809Y-93804819D01*
X173023809Y-93804819D02*
X173119047Y-93852438D01*
X173119047Y-93852438D02*
X173166666Y-93900057D01*
X173166666Y-93900057D02*
X173214285Y-93995295D01*
X173214285Y-93995295D02*
X173214285Y-94090533D01*
X173214285Y-94090533D02*
X173166666Y-94233390D01*
X173166666Y-94233390D02*
X172595238Y-94804819D01*
X172595238Y-94804819D02*
X173214285Y-94804819D01*
X169920833Y-81804819D02*
X169587500Y-81328628D01*
X169349405Y-81804819D02*
X169349405Y-80804819D01*
X169349405Y-80804819D02*
X169730357Y-80804819D01*
X169730357Y-80804819D02*
X169825595Y-80852438D01*
X169825595Y-80852438D02*
X169873214Y-80900057D01*
X169873214Y-80900057D02*
X169920833Y-80995295D01*
X169920833Y-80995295D02*
X169920833Y-81138152D01*
X169920833Y-81138152D02*
X169873214Y-81233390D01*
X169873214Y-81233390D02*
X169825595Y-81281009D01*
X169825595Y-81281009D02*
X169730357Y-81328628D01*
X169730357Y-81328628D02*
X169349405Y-81328628D01*
X170873214Y-81804819D02*
X170301786Y-81804819D01*
X170587500Y-81804819D02*
X170587500Y-80804819D01*
X170587500Y-80804819D02*
X170492262Y-80947676D01*
X170492262Y-80947676D02*
X170397024Y-81042914D01*
X170397024Y-81042914D02*
X170301786Y-81090533D01*
X170238095Y-71579819D02*
X170238095Y-70579819D01*
X170238095Y-71056009D02*
X170809523Y-71056009D01*
X170809523Y-71579819D02*
X170809523Y-70579819D01*
X171809523Y-71579819D02*
X171238095Y-71579819D01*
X171523809Y-71579819D02*
X171523809Y-70579819D01*
X171523809Y-70579819D02*
X171428571Y-70722676D01*
X171428571Y-70722676D02*
X171333333Y-70817914D01*
X171333333Y-70817914D02*
X171238095Y-70865533D01*
X166883333Y-92679580D02*
X166835714Y-92727200D01*
X166835714Y-92727200D02*
X166692857Y-92774819D01*
X166692857Y-92774819D02*
X166597619Y-92774819D01*
X166597619Y-92774819D02*
X166454762Y-92727200D01*
X166454762Y-92727200D02*
X166359524Y-92631961D01*
X166359524Y-92631961D02*
X166311905Y-92536723D01*
X166311905Y-92536723D02*
X166264286Y-92346247D01*
X166264286Y-92346247D02*
X166264286Y-92203390D01*
X166264286Y-92203390D02*
X166311905Y-92012914D01*
X166311905Y-92012914D02*
X166359524Y-91917676D01*
X166359524Y-91917676D02*
X166454762Y-91822438D01*
X166454762Y-91822438D02*
X166597619Y-91774819D01*
X166597619Y-91774819D02*
X166692857Y-91774819D01*
X166692857Y-91774819D02*
X166835714Y-91822438D01*
X166835714Y-91822438D02*
X166883333Y-91870057D01*
X167835714Y-92774819D02*
X167264286Y-92774819D01*
X167550000Y-92774819D02*
X167550000Y-91774819D01*
X167550000Y-91774819D02*
X167454762Y-91917676D01*
X167454762Y-91917676D02*
X167359524Y-92012914D01*
X167359524Y-92012914D02*
X167264286Y-92060533D01*
X141381940Y-101098664D02*
X141381940Y-100098664D01*
X141381940Y-100574854D02*
X141953368Y-100574854D01*
X141953368Y-101098664D02*
X141953368Y-100098664D01*
X142334321Y-100098664D02*
X142953368Y-100098664D01*
X142953368Y-100098664D02*
X142620035Y-100479616D01*
X142620035Y-100479616D02*
X142762892Y-100479616D01*
X142762892Y-100479616D02*
X142858130Y-100527235D01*
X142858130Y-100527235D02*
X142905749Y-100574854D01*
X142905749Y-100574854D02*
X142953368Y-100670092D01*
X142953368Y-100670092D02*
X142953368Y-100908187D01*
X142953368Y-100908187D02*
X142905749Y-101003425D01*
X142905749Y-101003425D02*
X142858130Y-101051045D01*
X142858130Y-101051045D02*
X142762892Y-101098664D01*
X142762892Y-101098664D02*
X142477178Y-101098664D01*
X142477178Y-101098664D02*
X142381940Y-101051045D01*
X142381940Y-101051045D02*
X142334321Y-101003425D01*
X159280595Y-83309819D02*
X159280595Y-84119342D01*
X159280595Y-84119342D02*
X159328214Y-84214580D01*
X159328214Y-84214580D02*
X159375833Y-84262200D01*
X159375833Y-84262200D02*
X159471071Y-84309819D01*
X159471071Y-84309819D02*
X159661547Y-84309819D01*
X159661547Y-84309819D02*
X159756785Y-84262200D01*
X159756785Y-84262200D02*
X159804404Y-84214580D01*
X159804404Y-84214580D02*
X159852023Y-84119342D01*
X159852023Y-84119342D02*
X159852023Y-83309819D01*
X160852023Y-84309819D02*
X160280595Y-84309819D01*
X160566309Y-84309819D02*
X160566309Y-83309819D01*
X160566309Y-83309819D02*
X160471071Y-83452676D01*
X160471071Y-83452676D02*
X160375833Y-83547914D01*
X160375833Y-83547914D02*
X160280595Y-83595533D01*
X171094250Y-100810974D02*
X171094250Y-99810974D01*
X171094250Y-100287164D02*
X171665678Y-100287164D01*
X171665678Y-100810974D02*
X171665678Y-99810974D01*
X172570440Y-100144307D02*
X172570440Y-100810974D01*
X172332345Y-99763355D02*
X172094250Y-100477640D01*
X172094250Y-100477640D02*
X172713297Y-100477640D01*
X166883333Y-86679580D02*
X166835714Y-86727200D01*
X166835714Y-86727200D02*
X166692857Y-86774819D01*
X166692857Y-86774819D02*
X166597619Y-86774819D01*
X166597619Y-86774819D02*
X166454762Y-86727200D01*
X166454762Y-86727200D02*
X166359524Y-86631961D01*
X166359524Y-86631961D02*
X166311905Y-86536723D01*
X166311905Y-86536723D02*
X166264286Y-86346247D01*
X166264286Y-86346247D02*
X166264286Y-86203390D01*
X166264286Y-86203390D02*
X166311905Y-86012914D01*
X166311905Y-86012914D02*
X166359524Y-85917676D01*
X166359524Y-85917676D02*
X166454762Y-85822438D01*
X166454762Y-85822438D02*
X166597619Y-85774819D01*
X166597619Y-85774819D02*
X166692857Y-85774819D01*
X166692857Y-85774819D02*
X166835714Y-85822438D01*
X166835714Y-85822438D02*
X166883333Y-85870057D01*
X167264286Y-85870057D02*
X167311905Y-85822438D01*
X167311905Y-85822438D02*
X167407143Y-85774819D01*
X167407143Y-85774819D02*
X167645238Y-85774819D01*
X167645238Y-85774819D02*
X167740476Y-85822438D01*
X167740476Y-85822438D02*
X167788095Y-85870057D01*
X167788095Y-85870057D02*
X167835714Y-85965295D01*
X167835714Y-85965295D02*
X167835714Y-86060533D01*
X167835714Y-86060533D02*
X167788095Y-86203390D01*
X167788095Y-86203390D02*
X167216667Y-86774819D01*
X167216667Y-86774819D02*
X167835714Y-86774819D01*
X157541666Y-101454819D02*
X157541666Y-102169104D01*
X157541666Y-102169104D02*
X157494047Y-102311961D01*
X157494047Y-102311961D02*
X157398809Y-102407200D01*
X157398809Y-102407200D02*
X157255952Y-102454819D01*
X157255952Y-102454819D02*
X157160714Y-102454819D01*
X158541666Y-102454819D02*
X157970238Y-102454819D01*
X158255952Y-102454819D02*
X158255952Y-101454819D01*
X158255952Y-101454819D02*
X158160714Y-101597676D01*
X158160714Y-101597676D02*
X158065476Y-101692914D01*
X158065476Y-101692914D02*
X157970238Y-101740533D01*
X161920833Y-92804819D02*
X161587500Y-92328628D01*
X161349405Y-92804819D02*
X161349405Y-91804819D01*
X161349405Y-91804819D02*
X161730357Y-91804819D01*
X161730357Y-91804819D02*
X161825595Y-91852438D01*
X161825595Y-91852438D02*
X161873214Y-91900057D01*
X161873214Y-91900057D02*
X161920833Y-91995295D01*
X161920833Y-91995295D02*
X161920833Y-92138152D01*
X161920833Y-92138152D02*
X161873214Y-92233390D01*
X161873214Y-92233390D02*
X161825595Y-92281009D01*
X161825595Y-92281009D02*
X161730357Y-92328628D01*
X161730357Y-92328628D02*
X161349405Y-92328628D01*
X162777976Y-92138152D02*
X162777976Y-92804819D01*
X162539881Y-91757200D02*
X162301786Y-92471485D01*
X162301786Y-92471485D02*
X162920833Y-92471485D01*
X171833333Y-93104819D02*
X171500000Y-92628628D01*
X171261905Y-93104819D02*
X171261905Y-92104819D01*
X171261905Y-92104819D02*
X171642857Y-92104819D01*
X171642857Y-92104819D02*
X171738095Y-92152438D01*
X171738095Y-92152438D02*
X171785714Y-92200057D01*
X171785714Y-92200057D02*
X171833333Y-92295295D01*
X171833333Y-92295295D02*
X171833333Y-92438152D01*
X171833333Y-92438152D02*
X171785714Y-92533390D01*
X171785714Y-92533390D02*
X171738095Y-92581009D01*
X171738095Y-92581009D02*
X171642857Y-92628628D01*
X171642857Y-92628628D02*
X171261905Y-92628628D01*
X172214286Y-92200057D02*
X172261905Y-92152438D01*
X172261905Y-92152438D02*
X172357143Y-92104819D01*
X172357143Y-92104819D02*
X172595238Y-92104819D01*
X172595238Y-92104819D02*
X172690476Y-92152438D01*
X172690476Y-92152438D02*
X172738095Y-92200057D01*
X172738095Y-92200057D02*
X172785714Y-92295295D01*
X172785714Y-92295295D02*
X172785714Y-92390533D01*
X172785714Y-92390533D02*
X172738095Y-92533390D01*
X172738095Y-92533390D02*
X172166667Y-93104819D01*
X172166667Y-93104819D02*
X172785714Y-93104819D01*
X141381940Y-71098664D02*
X141381940Y-70098664D01*
X141381940Y-70574854D02*
X141953368Y-70574854D01*
X141953368Y-71098664D02*
X141953368Y-70098664D01*
X142381940Y-70193902D02*
X142429559Y-70146283D01*
X142429559Y-70146283D02*
X142524797Y-70098664D01*
X142524797Y-70098664D02*
X142762892Y-70098664D01*
X142762892Y-70098664D02*
X142858130Y-70146283D01*
X142858130Y-70146283D02*
X142905749Y-70193902D01*
X142905749Y-70193902D02*
X142953368Y-70289140D01*
X142953368Y-70289140D02*
X142953368Y-70384378D01*
X142953368Y-70384378D02*
X142905749Y-70527235D01*
X142905749Y-70527235D02*
X142334321Y-71098664D01*
X142334321Y-71098664D02*
X142953368Y-71098664D01*
X170833333Y-84804819D02*
X170833333Y-83804819D01*
X170833333Y-84281009D02*
X171404761Y-84281009D01*
X171404761Y-84804819D02*
X171404761Y-83804819D01*
X172357142Y-84804819D02*
X171880952Y-84804819D01*
X171880952Y-84804819D02*
X171880952Y-83804819D01*
X173214285Y-84804819D02*
X172642857Y-84804819D01*
X172928571Y-84804819D02*
X172928571Y-83804819D01*
X172928571Y-83804819D02*
X172833333Y-83947676D01*
X172833333Y-83947676D02*
X172738095Y-84042914D01*
X172738095Y-84042914D02*
X172642857Y-84090533D01*
D11*
%TO.C,R3*%
X157860436Y-93265000D02*
X158314564Y-93265000D01*
X157860436Y-94735000D02*
X158314564Y-94735000D01*
%TO.C,HL2*%
X170315000Y-95040000D02*
X170315000Y-96960000D01*
X170315000Y-96960000D02*
X173000000Y-96960000D01*
X173000000Y-95040000D02*
X170315000Y-95040000D01*
%TO.C,R1*%
X169860436Y-82265000D02*
X170314564Y-82265000D01*
X169860436Y-83735000D02*
X170314564Y-83735000D01*
%TO.C,C1*%
X166788748Y-93265000D02*
X167311252Y-93265000D01*
X166788748Y-94735000D02*
X167311252Y-94735000D01*
%TO.C,U1*%
X160042500Y-84695000D02*
X158092500Y-84695000D01*
X160042500Y-84695000D02*
X161992500Y-84695000D01*
X160042500Y-89815000D02*
X158092500Y-89815000D01*
X160042500Y-89815000D02*
X161992500Y-89815000D01*
X157342500Y-84790000D02*
X157102500Y-84460000D01*
X157582500Y-84460000D01*
X157342500Y-84790000D01*
G36*
X157342500Y-84790000D02*
G01*
X157102500Y-84460000D01*
X157582500Y-84460000D01*
X157342500Y-84790000D01*
G37*
%TO.C,C2*%
X166788748Y-87265000D02*
X167311252Y-87265000D01*
X166788748Y-88735000D02*
X167311252Y-88735000D01*
%TO.C,J1*%
X153275000Y-104460000D02*
X153275000Y-106090000D01*
X162475000Y-104460000D02*
X162475000Y-106090000D01*
%TO.C,R4*%
X161860436Y-93265000D02*
X162314564Y-93265000D01*
X161860436Y-94735000D02*
X162314564Y-94735000D01*
%TO.C,R2*%
X172227064Y-90265000D02*
X171772936Y-90265000D01*
X172227064Y-91735000D02*
X171772936Y-91735000D01*
%TO.C,HL1*%
X170315000Y-85040000D02*
X170315000Y-86960000D01*
X170315000Y-86960000D02*
X173000000Y-86960000D01*
X173000000Y-85040000D02*
X170315000Y-85040000D01*
%TD*%
M02*
