%TF.GenerationSoftware,KiCad,Pcbnew,8.0.8*%
%TF.CreationDate,2025-03-19T14:50:45+02:00*%
%TF.ProjectId,Pcb_intro_timer,5063625f-696e-4747-926f-5f74696d6572,rev?*%
%TF.SameCoordinates,Original*%
%TF.FileFunction,Soldermask,Top*%
%TF.FilePolarity,Negative*%
%FSLAX46Y46*%
G04 Gerber Fmt 4.6, Leading zero omitted, Abs format (unit mm)*
G04 Created by KiCad (PCBNEW 8.0.8) date 2025-03-19 14:50:45*
%MOMM*%
%LPD*%
G01*
G04 APERTURE LIST*
G04 Aperture macros list*
%AMRoundRect*
0 Rectangle with rounded corners*
0 $1 Rounding radius*
0 $2 $3 $4 $5 $6 $7 $8 $9 X,Y pos of 4 corners*
0 Add a 4 corners polygon primitive as box body*
4,1,4,$2,$3,$4,$5,$6,$7,$8,$9,$2,$3,0*
0 Add four circle primitives for the rounded corners*
1,1,$1+$1,$2,$3*
1,1,$1+$1,$4,$5*
1,1,$1+$1,$6,$7*
1,1,$1+$1,$8,$9*
0 Add four rect primitives between the rounded corners*
20,1,$1+$1,$2,$3,$4,$5,0*
20,1,$1+$1,$4,$5,$6,$7,0*
20,1,$1+$1,$6,$7,$8,$9,0*
20,1,$1+$1,$8,$9,$2,$3,0*%
G04 Aperture macros list end*
%ADD10RoundRect,0.250000X-0.262500X-0.450000X0.262500X-0.450000X0.262500X0.450000X-0.262500X0.450000X0*%
%ADD11RoundRect,0.243750X-0.243750X-0.456250X0.243750X-0.456250X0.243750X0.456250X-0.243750X0.456250X0*%
%ADD12C,0.800000*%
%ADD13C,7.000000*%
%ADD14RoundRect,0.250000X-0.250000X-0.475000X0.250000X-0.475000X0.250000X0.475000X-0.250000X0.475000X0*%
%ADD15RoundRect,0.150000X-0.825000X-0.150000X0.825000X-0.150000X0.825000X0.150000X-0.825000X0.150000X0*%
%ADD16RoundRect,0.175000X-0.175000X-0.425000X0.175000X-0.425000X0.175000X0.425000X-0.175000X0.425000X0*%
%ADD17RoundRect,0.190000X0.190000X0.410000X-0.190000X0.410000X-0.190000X-0.410000X0.190000X-0.410000X0*%
%ADD18RoundRect,0.200000X0.200000X0.400000X-0.200000X0.400000X-0.200000X-0.400000X0.200000X-0.400000X0*%
%ADD19RoundRect,0.175000X0.175000X0.425000X-0.175000X0.425000X-0.175000X-0.425000X0.175000X-0.425000X0*%
%ADD20RoundRect,0.190000X-0.190000X-0.410000X0.190000X-0.410000X0.190000X0.410000X-0.190000X0.410000X0*%
%ADD21RoundRect,0.200000X-0.200000X-0.400000X0.200000X-0.400000X0.200000X0.400000X-0.200000X0.400000X0*%
%ADD22RoundRect,0.250000X-0.650000X-0.425000X0.650000X-0.425000X0.650000X0.425000X-0.650000X0.425000X0*%
%ADD23RoundRect,0.250000X-0.650000X-0.500000X0.650000X-0.500000X0.650000X0.500000X-0.650000X0.500000X0*%
%ADD24RoundRect,0.250000X0.262500X0.450000X-0.262500X0.450000X-0.262500X-0.450000X0.262500X-0.450000X0*%
G04 APERTURE END LIST*
D10*
%TO.C,R3*%
X157175000Y-94000000D03*
X159000000Y-94000000D03*
%TD*%
D11*
%TO.C,HL2*%
X171062500Y-96000000D03*
X172937500Y-96000000D03*
%TD*%
D10*
%TO.C,R1*%
X169175000Y-83000000D03*
X171000000Y-83000000D03*
%TD*%
D12*
%TO.C,H1*%
X168375000Y-75625000D03*
X169143845Y-73768845D03*
X169143845Y-77481155D03*
X171000000Y-73000000D03*
D13*
X171000000Y-75625000D03*
D12*
X171000000Y-78250000D03*
X172856155Y-73768845D03*
X172856155Y-77481155D03*
X173625000Y-75625000D03*
%TD*%
D14*
%TO.C,C1*%
X166100000Y-94000000D03*
X168000000Y-94000000D03*
%TD*%
D12*
%TO.C,H3*%
X139518845Y-105143845D03*
X140287690Y-103287690D03*
X140287690Y-107000000D03*
X142143845Y-102518845D03*
D13*
X142143845Y-105143845D03*
D12*
X142143845Y-107768845D03*
X144000000Y-103287690D03*
X144000000Y-107000000D03*
X144768845Y-105143845D03*
%TD*%
D15*
%TO.C,U1*%
X157567500Y-85350000D03*
X157567500Y-86620000D03*
X157567500Y-87890000D03*
X157567500Y-89160000D03*
X162517500Y-89160000D03*
X162517500Y-87890000D03*
X162517500Y-86620000D03*
X162517500Y-85350000D03*
%TD*%
D12*
%TO.C,H4*%
X169231155Y-104856155D03*
X170000000Y-103000000D03*
X170000000Y-106712310D03*
X171856155Y-102231155D03*
D13*
X171856155Y-104856155D03*
D12*
X171856155Y-107481155D03*
X173712310Y-103000000D03*
X173712310Y-106712310D03*
X174481155Y-104856155D03*
%TD*%
D14*
%TO.C,C2*%
X166100000Y-88000000D03*
X168000000Y-88000000D03*
%TD*%
D16*
%TO.C,J1*%
X157375000Y-103467500D03*
D17*
X159395000Y-103467500D03*
D18*
X160625000Y-103467500D03*
D19*
X158375000Y-103467500D03*
D20*
X156355000Y-103467500D03*
D21*
X155125000Y-103467500D03*
D22*
X152750000Y-103522500D03*
D23*
X152750000Y-107102500D03*
D22*
X163000000Y-103522500D03*
D23*
X163000000Y-107102500D03*
%TD*%
D10*
%TO.C,R4*%
X161175000Y-94000000D03*
X163000000Y-94000000D03*
%TD*%
D24*
%TO.C,R2*%
X172912500Y-91000000D03*
X171087500Y-91000000D03*
%TD*%
D12*
%TO.C,H2*%
X139518845Y-75143845D03*
X140287690Y-73287690D03*
X140287690Y-77000000D03*
X142143845Y-72518845D03*
D13*
X142143845Y-75143845D03*
D12*
X142143845Y-77768845D03*
X144000000Y-73287690D03*
X144000000Y-77000000D03*
X144768845Y-75143845D03*
%TD*%
D11*
%TO.C,HL1*%
X171062500Y-86000000D03*
X172937500Y-86000000D03*
%TD*%
M02*
