%TF.GenerationSoftware,KiCad,Pcbnew,8.0.8*%
%TF.CreationDate,2025-03-19T14:50:45+02:00*%
%TF.ProjectId,Pcb_intro_timer,5063625f-696e-4747-926f-5f74696d6572,rev?*%
%TF.SameCoordinates,Original*%
%TF.FileFunction,Copper,L1,Top*%
%TF.FilePolarity,Positive*%
%FSLAX46Y46*%
G04 Gerber Fmt 4.6, Leading zero omitted, Abs format (unit mm)*
G04 Created by KiCad (PCBNEW 8.0.8) date 2025-03-19 14:50:45*
%MOMM*%
%LPD*%
G01*
G04 APERTURE LIST*
G04 Aperture macros list*
%AMRoundRect*
0 Rectangle with rounded corners*
0 $1 Rounding radius*
0 $2 $3 $4 $5 $6 $7 $8 $9 X,Y pos of 4 corners*
0 Add a 4 corners polygon primitive as box body*
4,1,4,$2,$3,$4,$5,$6,$7,$8,$9,$2,$3,0*
0 Add four circle primitives for the rounded corners*
1,1,$1+$1,$2,$3*
1,1,$1+$1,$4,$5*
1,1,$1+$1,$6,$7*
1,1,$1+$1,$8,$9*
0 Add four rect primitives between the rounded corners*
20,1,$1+$1,$2,$3,$4,$5,0*
20,1,$1+$1,$4,$5,$6,$7,0*
20,1,$1+$1,$6,$7,$8,$9,0*
20,1,$1+$1,$8,$9,$2,$3,0*%
G04 Aperture macros list end*
%TA.AperFunction,SMDPad,CuDef*%
%ADD10RoundRect,0.250000X-0.262500X-0.450000X0.262500X-0.450000X0.262500X0.450000X-0.262500X0.450000X0*%
%TD*%
%TA.AperFunction,SMDPad,CuDef*%
%ADD11RoundRect,0.243750X-0.243750X-0.456250X0.243750X-0.456250X0.243750X0.456250X-0.243750X0.456250X0*%
%TD*%
%TA.AperFunction,ComponentPad*%
%ADD12C,0.800000*%
%TD*%
%TA.AperFunction,ComponentPad*%
%ADD13C,7.000000*%
%TD*%
%TA.AperFunction,SMDPad,CuDef*%
%ADD14RoundRect,0.250000X-0.250000X-0.475000X0.250000X-0.475000X0.250000X0.475000X-0.250000X0.475000X0*%
%TD*%
%TA.AperFunction,SMDPad,CuDef*%
%ADD15RoundRect,0.150000X-0.825000X-0.150000X0.825000X-0.150000X0.825000X0.150000X-0.825000X0.150000X0*%
%TD*%
%TA.AperFunction,SMDPad,CuDef*%
%ADD16RoundRect,0.175000X-0.175000X-0.425000X0.175000X-0.425000X0.175000X0.425000X-0.175000X0.425000X0*%
%TD*%
%TA.AperFunction,SMDPad,CuDef*%
%ADD17RoundRect,0.190000X0.190000X0.410000X-0.190000X0.410000X-0.190000X-0.410000X0.190000X-0.410000X0*%
%TD*%
%TA.AperFunction,SMDPad,CuDef*%
%ADD18RoundRect,0.200000X0.200000X0.400000X-0.200000X0.400000X-0.200000X-0.400000X0.200000X-0.400000X0*%
%TD*%
%TA.AperFunction,SMDPad,CuDef*%
%ADD19RoundRect,0.175000X0.175000X0.425000X-0.175000X0.425000X-0.175000X-0.425000X0.175000X-0.425000X0*%
%TD*%
%TA.AperFunction,SMDPad,CuDef*%
%ADD20RoundRect,0.190000X-0.190000X-0.410000X0.190000X-0.410000X0.190000X0.410000X-0.190000X0.410000X0*%
%TD*%
%TA.AperFunction,SMDPad,CuDef*%
%ADD21RoundRect,0.200000X-0.200000X-0.400000X0.200000X-0.400000X0.200000X0.400000X-0.200000X0.400000X0*%
%TD*%
%TA.AperFunction,SMDPad,CuDef*%
%ADD22RoundRect,0.250000X-0.650000X-0.425000X0.650000X-0.425000X0.650000X0.425000X-0.650000X0.425000X0*%
%TD*%
%TA.AperFunction,SMDPad,CuDef*%
%ADD23RoundRect,0.250000X-0.650000X-0.500000X0.650000X-0.500000X0.650000X0.500000X-0.650000X0.500000X0*%
%TD*%
%TA.AperFunction,SMDPad,CuDef*%
%ADD24RoundRect,0.250000X0.262500X0.450000X-0.262500X0.450000X-0.262500X-0.450000X0.262500X-0.450000X0*%
%TD*%
%TA.AperFunction,ViaPad*%
%ADD25C,0.600000*%
%TD*%
%TA.AperFunction,Conductor*%
%ADD26C,0.200000*%
%TD*%
G04 APERTURE END LIST*
D10*
%TO.P,R3,1*%
%TO.N,+5V*%
X157175000Y-94000000D03*
%TO.P,R3,2*%
%TO.N,Net-(U1-DIS)*%
X159000000Y-94000000D03*
%TD*%
D11*
%TO.P,HL2,1,K*%
%TO.N,Net-(HL2-K)*%
X171062500Y-96000000D03*
%TO.P,HL2,2,A*%
%TO.N,GND*%
X172937500Y-96000000D03*
%TD*%
D10*
%TO.P,R1,1*%
%TO.N,+5V*%
X169175000Y-83000000D03*
%TO.P,R1,2*%
%TO.N,Net-(HL1-K)*%
X171000000Y-83000000D03*
%TD*%
D12*
%TO.P,H1,1,1*%
%TO.N,GND*%
X168375000Y-75625000D03*
X169143845Y-73768845D03*
X169143845Y-77481155D03*
X171000000Y-73000000D03*
D13*
X171000000Y-75625000D03*
D12*
X171000000Y-78250000D03*
X172856155Y-73768845D03*
X172856155Y-77481155D03*
X173625000Y-75625000D03*
%TD*%
D14*
%TO.P,C1,1*%
%TO.N,Net-(U1-CV)*%
X166100000Y-94000000D03*
%TO.P,C1,2*%
%TO.N,GND*%
X168000000Y-94000000D03*
%TD*%
D12*
%TO.P,H3,1,1*%
%TO.N,GND*%
X139518845Y-105143845D03*
X140287690Y-103287690D03*
X140287690Y-107000000D03*
X142143845Y-102518845D03*
D13*
X142143845Y-105143845D03*
D12*
X142143845Y-107768845D03*
X144000000Y-103287690D03*
X144000000Y-107000000D03*
X144768845Y-105143845D03*
%TD*%
D15*
%TO.P,U1,1,GND*%
%TO.N,GND*%
X157567500Y-85350000D03*
%TO.P,U1,2,TR*%
%TO.N,Net-(U1-THR)*%
X157567500Y-86620000D03*
%TO.P,U1,3,Q*%
%TO.N,Net-(HL1-A)*%
X157567500Y-87890000D03*
%TO.P,U1,4,R*%
%TO.N,+5V*%
X157567500Y-89160000D03*
%TO.P,U1,5,CV*%
%TO.N,Net-(U1-CV)*%
X162517500Y-89160000D03*
%TO.P,U1,6,THR*%
%TO.N,Net-(U1-THR)*%
X162517500Y-87890000D03*
%TO.P,U1,7,DIS*%
%TO.N,Net-(U1-DIS)*%
X162517500Y-86620000D03*
%TO.P,U1,8,VCC*%
%TO.N,+5V*%
X162517500Y-85350000D03*
%TD*%
D12*
%TO.P,H4,1,1*%
%TO.N,GND*%
X169231155Y-104856155D03*
X170000000Y-103000000D03*
X170000000Y-106712310D03*
X171856155Y-102231155D03*
D13*
X171856155Y-104856155D03*
D12*
X171856155Y-107481155D03*
X173712310Y-103000000D03*
X173712310Y-106712310D03*
X174481155Y-104856155D03*
%TD*%
D14*
%TO.P,C2,1*%
%TO.N,Net-(U1-THR)*%
X166100000Y-88000000D03*
%TO.P,C2,2*%
%TO.N,GND*%
X168000000Y-88000000D03*
%TD*%
D16*
%TO.P,J1,A5,CC1*%
%TO.N,unconnected-(J1-CC1-PadA5)*%
X157375000Y-103467500D03*
D17*
%TO.P,J1,A9,VBUS*%
%TO.N,+5V*%
X159395000Y-103467500D03*
D18*
%TO.P,J1,A12,GND*%
%TO.N,GND*%
X160625000Y-103467500D03*
D19*
%TO.P,J1,B5,CC2*%
%TO.N,unconnected-(J1-CC2-PadB5)*%
X158375000Y-103467500D03*
D20*
%TO.P,J1,B9,VBUS*%
%TO.N,+5V*%
X156355000Y-103467500D03*
D21*
%TO.P,J1,B12,GND*%
%TO.N,GND*%
X155125000Y-103467500D03*
D22*
%TO.P,J1,S1,SHIELD*%
X152750000Y-103522500D03*
D23*
X152750000Y-107102500D03*
D22*
X163000000Y-103522500D03*
D23*
X163000000Y-107102500D03*
%TD*%
D10*
%TO.P,R4,1*%
%TO.N,Net-(U1-DIS)*%
X161175000Y-94000000D03*
%TO.P,R4,2*%
%TO.N,Net-(U1-THR)*%
X163000000Y-94000000D03*
%TD*%
D24*
%TO.P,R2,1*%
%TO.N,Net-(HL1-A)*%
X172912500Y-91000000D03*
%TO.P,R2,2*%
%TO.N,Net-(HL2-K)*%
X171087500Y-91000000D03*
%TD*%
D12*
%TO.P,H2,1,1*%
%TO.N,GND*%
X139518845Y-75143845D03*
X140287690Y-73287690D03*
X140287690Y-77000000D03*
X142143845Y-72518845D03*
D13*
X142143845Y-75143845D03*
D12*
X142143845Y-77768845D03*
X144000000Y-73287690D03*
X144000000Y-77000000D03*
X144768845Y-75143845D03*
%TD*%
D11*
%TO.P,HL1,1,K*%
%TO.N,Net-(HL1-K)*%
X171062500Y-86000000D03*
%TO.P,HL1,2,A*%
%TO.N,Net-(HL1-A)*%
X172937500Y-86000000D03*
%TD*%
D25*
%TO.N,Net-(U1-THR)*%
X160310791Y-87610791D03*
X164400000Y-93900000D03*
X159162261Y-87062261D03*
X164400000Y-88000000D03*
%TO.N,Net-(U1-DIS)*%
X161152742Y-87290000D03*
X161100000Y-88500000D03*
%TD*%
D26*
%TO.N,Net-(U1-CV)*%
X166100000Y-92742500D02*
X162517500Y-89160000D01*
X166100000Y-94000000D02*
X166100000Y-92742500D01*
%TO.N,Net-(U1-THR)*%
X160590000Y-87890000D02*
X160310791Y-87610791D01*
X159162261Y-87062261D02*
X158009761Y-87062261D01*
X162517500Y-87890000D02*
X160590000Y-87890000D01*
X164400000Y-93900000D02*
X163100000Y-93900000D01*
X158009761Y-87062261D02*
X157567500Y-86620000D01*
X162627500Y-88000000D02*
X162517500Y-87890000D01*
X166100000Y-88000000D02*
X162627500Y-88000000D01*
X163100000Y-93900000D02*
X163000000Y-94000000D01*
%TO.N,Net-(HL1-K)*%
X171062500Y-83062500D02*
X171000000Y-83000000D01*
X171062500Y-86000000D02*
X171062500Y-83062500D01*
%TO.N,Net-(HL1-A)*%
X156292500Y-87589999D02*
X156292500Y-84807500D01*
X172912500Y-91000000D02*
X172912500Y-86025000D01*
X159100000Y-82000000D02*
X171600000Y-82000000D01*
X171600000Y-82000000D02*
X172937500Y-83337500D01*
X156592501Y-87890000D02*
X156292500Y-87589999D01*
X156292500Y-84807500D02*
X159100000Y-82000000D01*
X157567500Y-87890000D02*
X156592501Y-87890000D01*
X172937500Y-83337500D02*
X172937500Y-86000000D01*
X172912500Y-86025000D02*
X172937500Y-86000000D01*
%TO.N,Net-(HL2-K)*%
X171062500Y-91025000D02*
X171087500Y-91000000D01*
X171062500Y-96000000D02*
X171062500Y-91025000D01*
%TO.N,Net-(U1-DIS)*%
X161175000Y-88575000D02*
X161100000Y-88500000D01*
X162517500Y-86620000D02*
X161822742Y-86620000D01*
X159000000Y-94000000D02*
X161175000Y-94000000D01*
X161822742Y-86620000D02*
X161152742Y-87290000D01*
X161175000Y-94000000D02*
X161175000Y-88575000D01*
%TO.N,+5V*%
X159100000Y-89200000D02*
X159100000Y-87800000D01*
X159100000Y-87800000D02*
X159273053Y-87800000D01*
X159132500Y-104367500D02*
X159395000Y-104105000D01*
X156655000Y-104367500D02*
X159132500Y-104367500D01*
X159060000Y-89160000D02*
X159100000Y-89200000D01*
X160850000Y-85350000D02*
X162517500Y-85350000D01*
X169175000Y-83000000D02*
X164867500Y-83000000D01*
X156355000Y-104067500D02*
X156655000Y-104367500D01*
X164867500Y-83000000D02*
X162517500Y-85350000D01*
X156355000Y-103467500D02*
X156355000Y-104067500D01*
X157567500Y-89160000D02*
X159060000Y-89160000D01*
X157175000Y-94000000D02*
X156355000Y-94820000D01*
X160600000Y-86473053D02*
X160600000Y-85600000D01*
X156355000Y-94820000D02*
X156355000Y-103467500D01*
X160600000Y-85600000D02*
X160850000Y-85350000D01*
X159395000Y-104105000D02*
X159395000Y-103467500D01*
X157175000Y-89552500D02*
X157175000Y-94000000D01*
X158360000Y-89160000D02*
X158400000Y-89200000D01*
X157567500Y-89160000D02*
X158360000Y-89160000D01*
X159273053Y-87800000D02*
X160600000Y-86473053D01*
X157567500Y-89160000D02*
X157175000Y-89552500D01*
%TD*%
%TA.AperFunction,Conductor*%
%TO.N,GND*%
G36*
X164185441Y-82620185D02*
G01*
X164231196Y-82672989D01*
X164241140Y-82742147D01*
X164212115Y-82805703D01*
X164206083Y-82812181D01*
X162505084Y-84513181D01*
X162443761Y-84546666D01*
X162417403Y-84549500D01*
X161626798Y-84549500D01*
X161589932Y-84552401D01*
X161589926Y-84552402D01*
X161432106Y-84598254D01*
X161432103Y-84598255D01*
X161290637Y-84681917D01*
X161290629Y-84681923D01*
X161259374Y-84713180D01*
X161198052Y-84746666D01*
X161171692Y-84749500D01*
X160770940Y-84749500D01*
X160730019Y-84760464D01*
X160730019Y-84760465D01*
X160707202Y-84766579D01*
X160618214Y-84790423D01*
X160618209Y-84790426D01*
X160481290Y-84869475D01*
X160481282Y-84869481D01*
X160119481Y-85231282D01*
X160119479Y-85231285D01*
X160069361Y-85318094D01*
X160069359Y-85318096D01*
X160040425Y-85368209D01*
X160040424Y-85368210D01*
X160040423Y-85368215D01*
X159999499Y-85520943D01*
X159999499Y-85520945D01*
X159999499Y-85689046D01*
X159999500Y-85689059D01*
X159999500Y-86172956D01*
X159979815Y-86239995D01*
X159963185Y-86260632D01*
X159887346Y-86336472D01*
X159812347Y-86411471D01*
X159751024Y-86444955D01*
X159681332Y-86439971D01*
X159658694Y-86428782D01*
X159511787Y-86336473D01*
X159341515Y-86276892D01*
X159341510Y-86276891D01*
X159162265Y-86256696D01*
X159162257Y-86256696D01*
X159110609Y-86262515D01*
X159041787Y-86250460D01*
X158990408Y-86203111D01*
X158989994Y-86202416D01*
X158972571Y-86172956D01*
X158910581Y-86068135D01*
X158910578Y-86068132D01*
X158905798Y-86061969D01*
X158908135Y-86060155D01*
X158881298Y-86011050D01*
X158886256Y-85941356D01*
X158907054Y-85908998D01*
X158905403Y-85907717D01*
X158910186Y-85901550D01*
X158993781Y-85760198D01*
X159039600Y-85602486D01*
X159039795Y-85600001D01*
X159039795Y-85600000D01*
X157691500Y-85600000D01*
X157624461Y-85580315D01*
X157578706Y-85527511D01*
X157567500Y-85476000D01*
X157567500Y-85350000D01*
X157441500Y-85350000D01*
X157374461Y-85330315D01*
X157328706Y-85277511D01*
X157317500Y-85226000D01*
X157317500Y-85100000D01*
X157817500Y-85100000D01*
X159039795Y-85100000D01*
X159039795Y-85099998D01*
X159039600Y-85097513D01*
X158993781Y-84939801D01*
X158910185Y-84798447D01*
X158910178Y-84798438D01*
X158794061Y-84682321D01*
X158794052Y-84682314D01*
X158652696Y-84598717D01*
X158652693Y-84598716D01*
X158494995Y-84552900D01*
X158494989Y-84552899D01*
X158458149Y-84550000D01*
X157817500Y-84550000D01*
X157817500Y-85100000D01*
X157317500Y-85100000D01*
X157317500Y-84683097D01*
X157337185Y-84616058D01*
X157353819Y-84595416D01*
X158123460Y-83825776D01*
X159312417Y-82636819D01*
X159373740Y-82603334D01*
X159400098Y-82600500D01*
X164118402Y-82600500D01*
X164185441Y-82620185D01*
G37*
%TD.AperFunction*%
%TA.AperFunction,Conductor*%
G36*
X176442539Y-70520185D02*
G01*
X176488294Y-70572989D01*
X176499500Y-70624500D01*
X176499500Y-109375500D01*
X176479815Y-109442539D01*
X176427011Y-109488294D01*
X176375500Y-109499500D01*
X137624500Y-109499500D01*
X137557461Y-109479815D01*
X137511706Y-109427011D01*
X137500500Y-109375500D01*
X137500500Y-105143845D01*
X138139021Y-105143845D01*
X138158306Y-105536395D01*
X138215974Y-105925153D01*
X138311470Y-106306394D01*
X138443861Y-106676404D01*
X138443868Y-106676420D01*
X138611907Y-107031709D01*
X138813954Y-107368803D01*
X139048078Y-107684483D01*
X139143913Y-107790220D01*
X139143914Y-107790220D01*
X140742225Y-106191908D01*
X140825302Y-106300176D01*
X140987514Y-106462388D01*
X141095779Y-106545463D01*
X139497468Y-108143774D01*
X139603212Y-108239615D01*
X139918886Y-108473735D01*
X140255980Y-108675782D01*
X140611269Y-108843821D01*
X140611285Y-108843828D01*
X140981295Y-108976219D01*
X141362536Y-109071715D01*
X141751294Y-109129383D01*
X142143845Y-109148668D01*
X142536395Y-109129383D01*
X142925153Y-109071715D01*
X143306394Y-108976219D01*
X143676404Y-108843828D01*
X143676420Y-108843821D01*
X144031709Y-108675782D01*
X144368803Y-108473735D01*
X144684483Y-108239611D01*
X144790220Y-108143775D01*
X144790220Y-108143773D01*
X143191909Y-106545463D01*
X143300176Y-106462388D01*
X143462388Y-106300176D01*
X143545463Y-106191910D01*
X145143773Y-107790220D01*
X145143775Y-107790220D01*
X145239611Y-107684483D01*
X145263342Y-107652486D01*
X151350001Y-107652486D01*
X151360494Y-107755197D01*
X151415641Y-107921619D01*
X151415643Y-107921624D01*
X151507684Y-108070845D01*
X151631654Y-108194815D01*
X151780875Y-108286856D01*
X151780880Y-108286858D01*
X151947302Y-108342005D01*
X151947309Y-108342006D01*
X152050019Y-108352499D01*
X152499999Y-108352499D01*
X153000000Y-108352499D01*
X153449972Y-108352499D01*
X153449986Y-108352498D01*
X153552697Y-108342005D01*
X153719119Y-108286858D01*
X153719124Y-108286856D01*
X153868345Y-108194815D01*
X153992315Y-108070845D01*
X154084356Y-107921624D01*
X154084358Y-107921619D01*
X154139505Y-107755197D01*
X154139506Y-107755190D01*
X154149999Y-107652486D01*
X161600001Y-107652486D01*
X161610494Y-107755197D01*
X161665641Y-107921619D01*
X161665643Y-107921624D01*
X161757684Y-108070845D01*
X161881654Y-108194815D01*
X162030875Y-108286856D01*
X162030880Y-108286858D01*
X162197302Y-108342005D01*
X162197309Y-108342006D01*
X162300019Y-108352499D01*
X162749999Y-108352499D01*
X163250000Y-108352499D01*
X163699972Y-108352499D01*
X163699986Y-108352498D01*
X163802697Y-108342005D01*
X163969119Y-108286858D01*
X163969124Y-108286856D01*
X164118345Y-108194815D01*
X164242315Y-108070845D01*
X164334356Y-107921624D01*
X164334358Y-107921619D01*
X164389505Y-107755197D01*
X164389506Y-107755190D01*
X164399999Y-107652486D01*
X164400000Y-107652473D01*
X164400000Y-107352500D01*
X163250000Y-107352500D01*
X163250000Y-108352499D01*
X162749999Y-108352499D01*
X162750000Y-108352498D01*
X162750000Y-107352500D01*
X161600001Y-107352500D01*
X161600001Y-107652486D01*
X154149999Y-107652486D01*
X154150000Y-107652473D01*
X154150000Y-107352500D01*
X153000000Y-107352500D01*
X153000000Y-108352499D01*
X152499999Y-108352499D01*
X152500000Y-108352498D01*
X152500000Y-107352500D01*
X151350001Y-107352500D01*
X151350001Y-107652486D01*
X145263342Y-107652486D01*
X145473735Y-107368803D01*
X145675782Y-107031709D01*
X145843821Y-106676420D01*
X145843828Y-106676404D01*
X145888157Y-106552513D01*
X151350000Y-106552513D01*
X151350000Y-106852500D01*
X152500000Y-106852500D01*
X153000000Y-106852500D01*
X154149999Y-106852500D01*
X154149999Y-106552528D01*
X154149998Y-106552513D01*
X161600000Y-106552513D01*
X161600000Y-106852500D01*
X162750000Y-106852500D01*
X163250000Y-106852500D01*
X164399999Y-106852500D01*
X164399999Y-106552528D01*
X164399998Y-106552513D01*
X164389505Y-106449802D01*
X164334358Y-106283380D01*
X164334356Y-106283375D01*
X164242315Y-106134154D01*
X164118345Y-106010184D01*
X163969124Y-105918143D01*
X163969119Y-105918141D01*
X163802697Y-105862994D01*
X163802690Y-105862993D01*
X163699986Y-105852500D01*
X163250000Y-105852500D01*
X163250000Y-106852500D01*
X162750000Y-106852500D01*
X162750000Y-105852500D01*
X162300028Y-105852500D01*
X162300012Y-105852501D01*
X162197302Y-105862994D01*
X162030880Y-105918141D01*
X162030875Y-105918143D01*
X161881654Y-106010184D01*
X161757684Y-106134154D01*
X161665643Y-106283375D01*
X161665641Y-106283380D01*
X161610494Y-106449802D01*
X161610493Y-106449809D01*
X161600000Y-106552513D01*
X154149998Y-106552513D01*
X154139505Y-106449802D01*
X154084358Y-106283380D01*
X154084356Y-106283375D01*
X153992315Y-106134154D01*
X153868345Y-106010184D01*
X153719124Y-105918143D01*
X153719119Y-105918141D01*
X153552697Y-105862994D01*
X153552690Y-105862993D01*
X153449986Y-105852500D01*
X153000000Y-105852500D01*
X153000000Y-106852500D01*
X152500000Y-106852500D01*
X152500000Y-105852500D01*
X152050028Y-105852500D01*
X152050012Y-105852501D01*
X151947302Y-105862994D01*
X151780880Y-105918141D01*
X151780875Y-105918143D01*
X151631654Y-106010184D01*
X151507684Y-106134154D01*
X151415643Y-106283375D01*
X151415641Y-106283380D01*
X151360494Y-106449802D01*
X151360493Y-106449809D01*
X151350000Y-106552513D01*
X145888157Y-106552513D01*
X145976219Y-106306394D01*
X146071715Y-105925153D01*
X146129383Y-105536395D01*
X146148668Y-105143845D01*
X146129383Y-104751294D01*
X146071715Y-104362536D01*
X145980275Y-103997486D01*
X151350001Y-103997486D01*
X151360494Y-104100197D01*
X151415641Y-104266619D01*
X151415643Y-104266624D01*
X151507684Y-104415845D01*
X151631654Y-104539815D01*
X151780875Y-104631856D01*
X151780880Y-104631858D01*
X151947302Y-104687005D01*
X151947309Y-104687006D01*
X152050019Y-104697499D01*
X152499999Y-104697499D01*
X152500000Y-104697498D01*
X152500000Y-103772500D01*
X153000000Y-103772500D01*
X153000000Y-104697499D01*
X153449972Y-104697499D01*
X153449986Y-104697498D01*
X153552697Y-104687005D01*
X153719119Y-104631858D01*
X153719124Y-104631856D01*
X153868345Y-104539815D01*
X153992315Y-104415845D01*
X154084356Y-104266624D01*
X154084357Y-104266620D01*
X154093183Y-104239986D01*
X154132954Y-104182540D01*
X154197470Y-104155715D01*
X154266246Y-104168029D01*
X154317007Y-104214837D01*
X154369927Y-104302377D01*
X154490122Y-104422572D01*
X154635604Y-104510519D01*
X154635603Y-104510519D01*
X154797894Y-104561090D01*
X154797893Y-104561090D01*
X154868408Y-104567498D01*
X154868426Y-104567499D01*
X154874999Y-104567498D01*
X154875000Y-104567498D01*
X154875000Y-103717500D01*
X154280000Y-103717500D01*
X154261319Y-103736181D01*
X154199996Y-103769666D01*
X154173638Y-103772500D01*
X153000000Y-103772500D01*
X152500000Y-103772500D01*
X151350001Y-103772500D01*
X151350001Y-103997486D01*
X145980275Y-103997486D01*
X145976219Y-103981295D01*
X145843828Y-103611285D01*
X145843821Y-103611269D01*
X145675782Y-103255980D01*
X145550831Y-103047513D01*
X151350000Y-103047513D01*
X151350000Y-103272500D01*
X152500000Y-103272500D01*
X153000000Y-103272500D01*
X154095000Y-103272500D01*
X154113681Y-103253819D01*
X154175004Y-103220334D01*
X154201362Y-103217500D01*
X154875000Y-103217500D01*
X154875000Y-102367500D01*
X155375000Y-102367500D01*
X155375000Y-104567499D01*
X155381581Y-104567499D01*
X155452102Y-104561091D01*
X155452107Y-104561090D01*
X155614395Y-104510519D01*
X155614398Y-104510518D01*
X155681759Y-104469796D01*
X155749313Y-104451959D01*
X155810057Y-104469794D01*
X155879529Y-104511791D01*
X155879532Y-104511792D01*
X155879531Y-104511792D01*
X155952802Y-104534624D01*
X156003593Y-104565328D01*
X156170139Y-104731874D01*
X156170149Y-104731885D01*
X156174479Y-104736215D01*
X156174480Y-104736216D01*
X156286284Y-104848020D01*
X156373095Y-104898139D01*
X156373097Y-104898141D01*
X156411151Y-104920111D01*
X156423215Y-104927077D01*
X156575943Y-104968000D01*
X156734057Y-104968000D01*
X159045831Y-104968000D01*
X159045847Y-104968001D01*
X159053443Y-104968001D01*
X159211554Y-104968001D01*
X159211557Y-104968001D01*
X159364285Y-104927077D01*
X159414404Y-104898139D01*
X159487125Y-104856155D01*
X167851331Y-104856155D01*
X167870616Y-105248705D01*
X167928284Y-105637463D01*
X168023780Y-106018704D01*
X168156171Y-106388714D01*
X168156178Y-106388730D01*
X168324217Y-106744019D01*
X168526264Y-107081113D01*
X168760388Y-107396793D01*
X168856223Y-107502530D01*
X168856224Y-107502530D01*
X170454536Y-105904219D01*
X170537612Y-106012486D01*
X170699824Y-106174698D01*
X170808089Y-106257773D01*
X169209778Y-107856084D01*
X169315522Y-107951925D01*
X169631196Y-108186045D01*
X169968290Y-108388092D01*
X170323579Y-108556131D01*
X170323595Y-108556138D01*
X170693605Y-108688529D01*
X171074846Y-108784025D01*
X171463604Y-108841693D01*
X171856155Y-108860978D01*
X172248705Y-108841693D01*
X172637463Y-108784025D01*
X173018704Y-108688529D01*
X173388714Y-108556138D01*
X173388730Y-108556131D01*
X173744019Y-108388092D01*
X174081113Y-108186045D01*
X174396793Y-107951921D01*
X174502530Y-107856085D01*
X174502530Y-107856083D01*
X172904219Y-106257773D01*
X173012486Y-106174698D01*
X173174698Y-106012486D01*
X173257773Y-105904220D01*
X174856083Y-107502530D01*
X174856085Y-107502530D01*
X174951921Y-107396793D01*
X175186045Y-107081113D01*
X175388092Y-106744019D01*
X175556131Y-106388730D01*
X175556138Y-106388714D01*
X175688529Y-106018704D01*
X175784025Y-105637463D01*
X175841693Y-105248705D01*
X175860978Y-104856155D01*
X175841693Y-104463604D01*
X175784025Y-104074846D01*
X175688529Y-103693605D01*
X175556138Y-103323595D01*
X175556131Y-103323579D01*
X175388092Y-102968290D01*
X175186045Y-102631196D01*
X174951925Y-102315522D01*
X174856084Y-102209778D01*
X173257772Y-103808089D01*
X173174698Y-103699824D01*
X173012486Y-103537612D01*
X172904219Y-103454536D01*
X174502530Y-101856224D01*
X174502530Y-101856223D01*
X174396793Y-101760388D01*
X174081113Y-101526264D01*
X173744019Y-101324217D01*
X173388730Y-101156178D01*
X173388714Y-101156171D01*
X173018704Y-101023780D01*
X172637463Y-100928284D01*
X172248705Y-100870616D01*
X171856155Y-100851331D01*
X171463604Y-100870616D01*
X171074846Y-100928284D01*
X170693605Y-101023780D01*
X170323595Y-101156171D01*
X170323579Y-101156178D01*
X169968290Y-101324217D01*
X169631196Y-101526264D01*
X169315522Y-101760383D01*
X169209778Y-101856223D01*
X169209778Y-101856224D01*
X170808090Y-103454536D01*
X170699824Y-103537612D01*
X170537612Y-103699824D01*
X170454536Y-103808090D01*
X168856224Y-102209778D01*
X168856223Y-102209778D01*
X168760383Y-102315522D01*
X168526264Y-102631196D01*
X168324217Y-102968290D01*
X168156178Y-103323579D01*
X168156171Y-103323595D01*
X168023780Y-103693605D01*
X167928284Y-104074846D01*
X167870616Y-104463604D01*
X167851331Y-104856155D01*
X159487125Y-104856155D01*
X159501216Y-104848020D01*
X159613020Y-104736216D01*
X159613020Y-104736214D01*
X159623228Y-104726007D01*
X159623230Y-104726004D01*
X159753504Y-104595729D01*
X159753514Y-104595722D01*
X159763716Y-104585520D01*
X159800882Y-104548352D01*
X159851676Y-104517647D01*
X159870471Y-104511791D01*
X159939941Y-104469794D01*
X160007491Y-104451959D01*
X160068238Y-104469795D01*
X160135604Y-104510519D01*
X160135603Y-104510519D01*
X160297894Y-104561090D01*
X160297893Y-104561090D01*
X160368408Y-104567498D01*
X160368426Y-104567499D01*
X160875000Y-104567499D01*
X160881581Y-104567499D01*
X160952102Y-104561091D01*
X160952107Y-104561090D01*
X161114396Y-104510518D01*
X161259877Y-104422572D01*
X161380072Y-104302377D01*
X161432992Y-104214837D01*
X161484520Y-104167650D01*
X161553379Y-104155811D01*
X161617708Y-104183079D01*
X161656815Y-104239983D01*
X161665641Y-104266619D01*
X161665643Y-104266624D01*
X161757684Y-104415845D01*
X161881654Y-104539815D01*
X162030875Y-104631856D01*
X162030880Y-104631858D01*
X162197302Y-104687005D01*
X162197309Y-104687006D01*
X162300019Y-104697499D01*
X162749999Y-104697499D01*
X163250000Y-104697499D01*
X163699972Y-104697499D01*
X163699986Y-104697498D01*
X163802697Y-104687005D01*
X163969119Y-104631858D01*
X163969124Y-104631856D01*
X164118345Y-104539815D01*
X164242315Y-104415845D01*
X164334356Y-104266624D01*
X164334358Y-104266619D01*
X164389505Y-104100197D01*
X164389506Y-104100190D01*
X164399999Y-103997486D01*
X164400000Y-103997473D01*
X164400000Y-103772500D01*
X163250000Y-103772500D01*
X163250000Y-104697499D01*
X162749999Y-104697499D01*
X162750000Y-104697498D01*
X162750000Y-103772500D01*
X161576362Y-103772500D01*
X161509323Y-103752815D01*
X161488681Y-103736181D01*
X161470000Y-103717500D01*
X160875000Y-103717500D01*
X160875000Y-104567499D01*
X160368426Y-104567499D01*
X160374999Y-104567498D01*
X160375000Y-104567498D01*
X160375000Y-102367500D01*
X160875000Y-102367500D01*
X160875000Y-103217500D01*
X161548638Y-103217500D01*
X161615677Y-103237185D01*
X161636319Y-103253819D01*
X161655000Y-103272500D01*
X162750000Y-103272500D01*
X163250000Y-103272500D01*
X164399999Y-103272500D01*
X164399999Y-103047528D01*
X164399998Y-103047513D01*
X164389505Y-102944802D01*
X164334358Y-102778380D01*
X164334356Y-102778375D01*
X164242315Y-102629154D01*
X164118345Y-102505184D01*
X163969124Y-102413143D01*
X163969119Y-102413141D01*
X163802697Y-102357994D01*
X163802690Y-102357993D01*
X163699986Y-102347500D01*
X163250000Y-102347500D01*
X163250000Y-103272500D01*
X162750000Y-103272500D01*
X162750000Y-102347500D01*
X162300028Y-102347500D01*
X162300012Y-102347501D01*
X162197302Y-102357994D01*
X162030880Y-102413141D01*
X162030875Y-102413143D01*
X161881654Y-102505184D01*
X161757684Y-102629154D01*
X161672524Y-102767221D01*
X161620576Y-102813945D01*
X161551613Y-102825167D01*
X161487531Y-102797324D01*
X161460868Y-102766274D01*
X161380072Y-102632622D01*
X161259877Y-102512427D01*
X161114395Y-102424480D01*
X161114396Y-102424480D01*
X160952105Y-102373909D01*
X160952106Y-102373909D01*
X160881572Y-102367500D01*
X160875000Y-102367500D01*
X160375000Y-102367500D01*
X160374999Y-102367499D01*
X160368436Y-102367500D01*
X160368417Y-102367501D01*
X160297897Y-102373908D01*
X160297892Y-102373909D01*
X160135601Y-102424481D01*
X160068236Y-102465204D01*
X160000681Y-102483039D01*
X159939939Y-102465203D01*
X159870473Y-102423210D01*
X159870472Y-102423209D01*
X159870471Y-102423209D01*
X159710380Y-102373323D01*
X159710378Y-102373322D01*
X159710376Y-102373322D01*
X159661662Y-102368895D01*
X159640801Y-102367000D01*
X159640798Y-102367000D01*
X159149191Y-102367000D01*
X159079623Y-102373321D01*
X159079613Y-102373324D01*
X158912696Y-102425337D01*
X158842836Y-102426488D01*
X158836443Y-102424183D01*
X158836432Y-102424219D01*
X158672664Y-102373187D01*
X158672662Y-102373186D01*
X158672657Y-102373185D01*
X158604594Y-102367000D01*
X158145406Y-102367000D01*
X158077343Y-102373185D01*
X158077341Y-102373185D01*
X158077338Y-102373186D01*
X157913570Y-102424219D01*
X157912720Y-102421491D01*
X157856639Y-102429222D01*
X157836695Y-102423366D01*
X157836430Y-102424219D01*
X157672661Y-102373186D01*
X157672659Y-102373185D01*
X157672657Y-102373185D01*
X157604594Y-102367000D01*
X157145406Y-102367000D01*
X157125539Y-102368805D01*
X157090721Y-102371969D01*
X157022175Y-102358432D01*
X156971830Y-102309985D01*
X156955500Y-102248478D01*
X156955500Y-95324499D01*
X156975185Y-95257460D01*
X157027989Y-95211705D01*
X157079500Y-95200499D01*
X157487502Y-95200499D01*
X157487508Y-95200499D01*
X157590297Y-95189999D01*
X157756834Y-95134814D01*
X157906156Y-95042712D01*
X157999819Y-94949049D01*
X158061142Y-94915564D01*
X158130834Y-94920548D01*
X158175181Y-94949049D01*
X158268844Y-95042712D01*
X158418166Y-95134814D01*
X158584703Y-95189999D01*
X158687491Y-95200500D01*
X159312508Y-95200499D01*
X159312516Y-95200498D01*
X159312519Y-95200498D01*
X159368802Y-95194748D01*
X159415297Y-95189999D01*
X159581834Y-95134814D01*
X159731156Y-95042712D01*
X159855212Y-94918656D01*
X159947314Y-94769334D01*
X159969794Y-94701492D01*
X160009567Y-94644048D01*
X160074083Y-94617225D01*
X160142858Y-94629540D01*
X160194058Y-94677083D01*
X160205206Y-94701493D01*
X160227685Y-94769331D01*
X160227687Y-94769336D01*
X160243104Y-94794331D01*
X160319788Y-94918656D01*
X160443844Y-95042712D01*
X160593166Y-95134814D01*
X160759703Y-95189999D01*
X160862491Y-95200500D01*
X161487508Y-95200499D01*
X161487516Y-95200498D01*
X161487519Y-95200498D01*
X161543802Y-95194748D01*
X161590297Y-95189999D01*
X161756834Y-95134814D01*
X161906156Y-95042712D01*
X161999819Y-94949049D01*
X162061142Y-94915564D01*
X162130834Y-94920548D01*
X162175181Y-94949049D01*
X162268844Y-95042712D01*
X162418166Y-95134814D01*
X162584703Y-95189999D01*
X162687491Y-95200500D01*
X163312508Y-95200499D01*
X163312516Y-95200498D01*
X163312519Y-95200498D01*
X163368802Y-95194748D01*
X163415297Y-95189999D01*
X163581834Y-95134814D01*
X163731156Y-95042712D01*
X163855212Y-94918656D01*
X163947314Y-94769334D01*
X163961000Y-94728030D01*
X164000769Y-94670591D01*
X164065284Y-94643766D01*
X164119659Y-94649997D01*
X164220737Y-94685366D01*
X164220743Y-94685367D01*
X164220745Y-94685368D01*
X164220746Y-94685368D01*
X164220750Y-94685369D01*
X164399996Y-94705565D01*
X164400000Y-94705565D01*
X164400004Y-94705565D01*
X164579249Y-94685369D01*
X164579252Y-94685368D01*
X164579255Y-94685368D01*
X164749522Y-94625789D01*
X164902262Y-94529816D01*
X164902274Y-94529803D01*
X164907501Y-94525636D01*
X164972186Y-94499223D01*
X165040882Y-94511973D01*
X165091780Y-94559840D01*
X165108180Y-94609973D01*
X165110001Y-94627798D01*
X165110001Y-94627799D01*
X165156901Y-94769331D01*
X165165186Y-94794334D01*
X165257288Y-94943656D01*
X165381344Y-95067712D01*
X165530666Y-95159814D01*
X165697203Y-95214999D01*
X165799991Y-95225500D01*
X166400008Y-95225499D01*
X166400016Y-95225498D01*
X166400019Y-95225498D01*
X166456302Y-95219748D01*
X166502797Y-95214999D01*
X166669334Y-95159814D01*
X166818656Y-95067712D01*
X166942712Y-94943656D01*
X166944752Y-94940347D01*
X166946745Y-94938555D01*
X166947193Y-94937989D01*
X166947289Y-94938065D01*
X166996694Y-94893623D01*
X167065656Y-94882395D01*
X167129740Y-94910234D01*
X167155829Y-94940339D01*
X167157681Y-94943341D01*
X167157683Y-94943344D01*
X167281654Y-95067315D01*
X167430875Y-95159356D01*
X167430880Y-95159358D01*
X167597302Y-95214505D01*
X167597309Y-95214506D01*
X167700019Y-95224999D01*
X168250000Y-95224999D01*
X168299972Y-95224999D01*
X168299986Y-95224998D01*
X168402697Y-95214505D01*
X168569119Y-95159358D01*
X168569124Y-95159356D01*
X168718345Y-95067315D01*
X168842315Y-94943345D01*
X168934356Y-94794124D01*
X168934358Y-94794119D01*
X168989505Y-94627697D01*
X168989506Y-94627690D01*
X168999999Y-94524986D01*
X169000000Y-94524973D01*
X169000000Y-94250000D01*
X168250000Y-94250000D01*
X168250000Y-95224999D01*
X167700019Y-95224999D01*
X167749999Y-95224998D01*
X167750000Y-95224998D01*
X167750000Y-93750000D01*
X168250000Y-93750000D01*
X168999999Y-93750000D01*
X168999999Y-93475028D01*
X168999998Y-93475013D01*
X168989505Y-93372302D01*
X168934358Y-93205880D01*
X168934356Y-93205875D01*
X168842315Y-93056654D01*
X168718345Y-92932684D01*
X168569124Y-92840643D01*
X168569119Y-92840641D01*
X168402697Y-92785494D01*
X168402690Y-92785493D01*
X168299986Y-92775000D01*
X168250000Y-92775000D01*
X168250000Y-93750000D01*
X167750000Y-93750000D01*
X167750000Y-92775000D01*
X167749999Y-92774999D01*
X167700029Y-92775000D01*
X167700011Y-92775001D01*
X167597302Y-92785494D01*
X167430880Y-92840641D01*
X167430875Y-92840643D01*
X167281654Y-92932684D01*
X167157683Y-93056655D01*
X167157679Y-93056660D01*
X167155826Y-93059665D01*
X167154018Y-93061290D01*
X167153202Y-93062323D01*
X167153025Y-93062183D01*
X167103874Y-93106385D01*
X167034911Y-93117601D01*
X166970831Y-93089752D01*
X166944753Y-93059653D01*
X166944737Y-93059628D01*
X166942712Y-93056344D01*
X166818656Y-92932288D01*
X166818655Y-92932287D01*
X166759402Y-92895739D01*
X166712678Y-92843791D01*
X166700500Y-92790201D01*
X166700500Y-92663445D01*
X166700500Y-92663443D01*
X166659577Y-92510716D01*
X166659577Y-92510715D01*
X166659577Y-92510714D01*
X166630639Y-92460595D01*
X166630637Y-92460592D01*
X166580520Y-92373784D01*
X166468716Y-92261980D01*
X166468715Y-92261979D01*
X166464385Y-92257649D01*
X166464374Y-92257639D01*
X163950154Y-89743419D01*
X163916669Y-89682096D01*
X163921653Y-89612404D01*
X163931104Y-89592616D01*
X163944244Y-89570398D01*
X163990098Y-89412569D01*
X163993000Y-89375694D01*
X163993000Y-88944306D01*
X163990098Y-88907431D01*
X163990097Y-88907426D01*
X163988960Y-88901201D01*
X163991725Y-88900695D01*
X163991839Y-88843081D01*
X164029730Y-88784378D01*
X164093343Y-88755478D01*
X164151701Y-88761209D01*
X164217916Y-88784378D01*
X164220745Y-88785368D01*
X164220746Y-88785368D01*
X164220750Y-88785369D01*
X164399996Y-88805565D01*
X164400000Y-88805565D01*
X164400004Y-88805565D01*
X164579249Y-88785369D01*
X164579252Y-88785368D01*
X164579255Y-88785368D01*
X164749522Y-88725789D01*
X164902262Y-88629816D01*
X164902267Y-88629810D01*
X164905097Y-88627555D01*
X164907275Y-88626665D01*
X164908158Y-88626111D01*
X164908255Y-88626265D01*
X164969783Y-88601145D01*
X164982412Y-88600500D01*
X165011415Y-88600500D01*
X165078454Y-88620185D01*
X165124209Y-88672989D01*
X165129118Y-88685489D01*
X165165186Y-88794334D01*
X165257288Y-88943656D01*
X165381344Y-89067712D01*
X165530666Y-89159814D01*
X165697203Y-89214999D01*
X165799991Y-89225500D01*
X166400008Y-89225499D01*
X166400016Y-89225498D01*
X166400019Y-89225498D01*
X166456302Y-89219748D01*
X166502797Y-89214999D01*
X166669334Y-89159814D01*
X166818656Y-89067712D01*
X166942712Y-88943656D01*
X166944752Y-88940347D01*
X166946745Y-88938555D01*
X166947193Y-88937989D01*
X166947289Y-88938065D01*
X166996694Y-88893623D01*
X167065656Y-88882395D01*
X167129740Y-88910234D01*
X167155829Y-88940339D01*
X167157681Y-88943341D01*
X167157683Y-88943344D01*
X167281654Y-89067315D01*
X167430875Y-89159356D01*
X167430880Y-89159358D01*
X167597302Y-89214505D01*
X167597309Y-89214506D01*
X167700019Y-89224999D01*
X168250000Y-89224999D01*
X168299972Y-89224999D01*
X168299986Y-89224998D01*
X168402697Y-89214505D01*
X168569119Y-89159358D01*
X168569124Y-89159356D01*
X168718345Y-89067315D01*
X168842315Y-88943345D01*
X168934356Y-88794124D01*
X168934358Y-88794119D01*
X168989505Y-88627697D01*
X168989506Y-88627690D01*
X168999999Y-88524986D01*
X169000000Y-88524973D01*
X169000000Y-88250000D01*
X168250000Y-88250000D01*
X168250000Y-89224999D01*
X167700019Y-89224999D01*
X167749999Y-89224998D01*
X167750000Y-89224998D01*
X167750000Y-87750000D01*
X168250000Y-87750000D01*
X168999999Y-87750000D01*
X168999999Y-87475028D01*
X168999998Y-87475013D01*
X168989505Y-87372302D01*
X168934358Y-87205880D01*
X168934356Y-87205875D01*
X168842315Y-87056654D01*
X168718345Y-86932684D01*
X168569124Y-86840643D01*
X168569119Y-86840641D01*
X168402697Y-86785494D01*
X168402690Y-86785493D01*
X168299986Y-86775000D01*
X168250000Y-86775000D01*
X168250000Y-87750000D01*
X167750000Y-87750000D01*
X167750000Y-86775000D01*
X167749999Y-86774999D01*
X167700029Y-86775000D01*
X167700011Y-86775001D01*
X167597302Y-86785494D01*
X167430880Y-86840641D01*
X167430875Y-86840643D01*
X167281654Y-86932684D01*
X167157683Y-87056655D01*
X167157679Y-87056660D01*
X167155826Y-87059665D01*
X167154018Y-87061290D01*
X167153202Y-87062323D01*
X167153025Y-87062183D01*
X167103874Y-87106385D01*
X167034911Y-87117601D01*
X166970831Y-87089752D01*
X166944753Y-87059653D01*
X166944282Y-87058890D01*
X166942712Y-87056344D01*
X166818656Y-86932288D01*
X166669334Y-86840186D01*
X166502797Y-86785001D01*
X166502795Y-86785000D01*
X166400010Y-86774500D01*
X165799998Y-86774500D01*
X165799980Y-86774501D01*
X165697203Y-86785000D01*
X165697200Y-86785001D01*
X165530668Y-86840185D01*
X165530663Y-86840187D01*
X165381342Y-86932289D01*
X165257289Y-87056342D01*
X165165187Y-87205663D01*
X165165185Y-87205668D01*
X165162215Y-87214631D01*
X165142473Y-87274211D01*
X165129121Y-87314504D01*
X165089348Y-87371949D01*
X165024833Y-87398772D01*
X165011415Y-87399500D01*
X164982412Y-87399500D01*
X164915373Y-87379815D01*
X164905097Y-87372445D01*
X164902263Y-87370185D01*
X164902262Y-87370184D01*
X164813648Y-87314504D01*
X164749523Y-87274211D01*
X164579254Y-87214631D01*
X164579249Y-87214630D01*
X164400004Y-87194435D01*
X164399996Y-87194435D01*
X164220750Y-87214630D01*
X164220742Y-87214632D01*
X164055281Y-87272529D01*
X163985502Y-87276090D01*
X163924875Y-87241361D01*
X163892648Y-87179367D01*
X163899054Y-87109792D01*
X163907591Y-87092374D01*
X163944244Y-87030398D01*
X163990098Y-86872569D01*
X163993000Y-86835694D01*
X163993000Y-86404306D01*
X163990098Y-86367431D01*
X163981103Y-86336472D01*
X163944245Y-86209606D01*
X163944244Y-86209603D01*
X163944244Y-86209602D01*
X163860581Y-86068135D01*
X163860578Y-86068132D01*
X163855798Y-86061969D01*
X163858250Y-86060066D01*
X163831655Y-86011421D01*
X163836604Y-85941726D01*
X163857440Y-85909304D01*
X163855798Y-85908031D01*
X163860575Y-85901870D01*
X163860581Y-85901865D01*
X163944244Y-85760398D01*
X163990098Y-85602569D01*
X163993000Y-85565694D01*
X163993000Y-85134306D01*
X163990098Y-85097431D01*
X163984947Y-85079703D01*
X163956336Y-84981224D01*
X163944244Y-84939602D01*
X163931102Y-84917379D01*
X163913921Y-84849655D01*
X163936081Y-84783393D01*
X163950148Y-84766585D01*
X165079916Y-83636819D01*
X165141239Y-83603334D01*
X165167597Y-83600500D01*
X168082199Y-83600500D01*
X168149238Y-83620185D01*
X168194993Y-83672989D01*
X168199903Y-83685492D01*
X168227686Y-83769334D01*
X168319788Y-83918656D01*
X168443844Y-84042712D01*
X168593166Y-84134814D01*
X168759703Y-84189999D01*
X168862491Y-84200500D01*
X169487508Y-84200499D01*
X169487516Y-84200498D01*
X169487519Y-84200498D01*
X169543802Y-84194748D01*
X169590297Y-84189999D01*
X169756834Y-84134814D01*
X169906156Y-84042712D01*
X169999819Y-83949049D01*
X170061142Y-83915564D01*
X170130834Y-83920548D01*
X170175181Y-83949049D01*
X170268844Y-84042712D01*
X170403097Y-84125519D01*
X170449821Y-84177465D01*
X170462000Y-84231057D01*
X170462000Y-84820149D01*
X170442315Y-84887188D01*
X170403099Y-84925686D01*
X170353998Y-84955972D01*
X170230971Y-85079000D01*
X170139642Y-85227066D01*
X170139637Y-85227077D01*
X170084913Y-85392223D01*
X170074500Y-85494144D01*
X170074500Y-86505855D01*
X170084913Y-86607776D01*
X170139637Y-86772922D01*
X170139642Y-86772933D01*
X170230971Y-86920999D01*
X170230974Y-86921003D01*
X170353996Y-87044025D01*
X170354000Y-87044028D01*
X170502066Y-87135357D01*
X170502069Y-87135358D01*
X170502075Y-87135362D01*
X170667225Y-87190087D01*
X170769152Y-87200500D01*
X170769157Y-87200500D01*
X171355843Y-87200500D01*
X171355848Y-87200500D01*
X171457775Y-87190087D01*
X171622925Y-87135362D01*
X171771003Y-87044026D01*
X171894026Y-86921003D01*
X171894458Y-86920301D01*
X171894881Y-86919921D01*
X171898507Y-86915336D01*
X171899290Y-86915955D01*
X171946402Y-86873575D01*
X172015364Y-86862349D01*
X172079448Y-86890188D01*
X172101342Y-86915455D01*
X172101493Y-86915336D01*
X172104143Y-86918687D01*
X172105540Y-86920299D01*
X172105974Y-86921003D01*
X172228997Y-87044026D01*
X172253096Y-87058891D01*
X172299821Y-87110837D01*
X172312000Y-87164429D01*
X172312000Y-89807491D01*
X172292315Y-89874530D01*
X172253098Y-89913029D01*
X172181344Y-89957287D01*
X172181343Y-89957288D01*
X172087681Y-90050951D01*
X172026358Y-90084436D01*
X171956666Y-90079452D01*
X171912319Y-90050951D01*
X171818657Y-89957289D01*
X171818656Y-89957288D01*
X171669334Y-89865186D01*
X171502797Y-89810001D01*
X171502795Y-89810000D01*
X171400010Y-89799500D01*
X170774998Y-89799500D01*
X170774980Y-89799501D01*
X170672203Y-89810000D01*
X170672200Y-89810001D01*
X170505668Y-89865185D01*
X170505663Y-89865187D01*
X170356342Y-89957289D01*
X170232289Y-90081342D01*
X170140187Y-90230663D01*
X170140186Y-90230666D01*
X170085001Y-90397203D01*
X170085001Y-90397204D01*
X170085000Y-90397204D01*
X170074500Y-90499983D01*
X170074500Y-91500001D01*
X170074501Y-91500019D01*
X170085000Y-91602796D01*
X170085001Y-91602799D01*
X170140185Y-91769331D01*
X170140186Y-91769334D01*
X170232288Y-91918656D01*
X170356344Y-92042712D01*
X170403096Y-92071548D01*
X170449820Y-92123494D01*
X170462000Y-92177087D01*
X170462000Y-94820149D01*
X170442315Y-94887188D01*
X170403099Y-94925686D01*
X170353998Y-94955972D01*
X170230971Y-95079000D01*
X170139642Y-95227066D01*
X170139637Y-95227077D01*
X170084913Y-95392223D01*
X170074500Y-95494144D01*
X170074500Y-96505855D01*
X170084913Y-96607776D01*
X170139637Y-96772922D01*
X170139642Y-96772933D01*
X170230971Y-96920999D01*
X170230974Y-96921003D01*
X170353996Y-97044025D01*
X170354000Y-97044028D01*
X170502066Y-97135357D01*
X170502069Y-97135358D01*
X170502075Y-97135362D01*
X170667225Y-97190087D01*
X170769152Y-97200500D01*
X170769157Y-97200500D01*
X171355843Y-97200500D01*
X171355848Y-97200500D01*
X171457775Y-97190087D01*
X171622925Y-97135362D01*
X171771003Y-97044026D01*
X171894026Y-96921003D01*
X171894755Y-96919821D01*
X171895466Y-96919181D01*
X171898507Y-96915336D01*
X171899163Y-96915855D01*
X171946701Y-96873097D01*
X172015664Y-96861873D01*
X172079746Y-96889715D01*
X172101761Y-96915123D01*
X172101888Y-96915023D01*
X172104113Y-96917838D01*
X172105833Y-96919822D01*
X172106365Y-96920685D01*
X172106369Y-96920690D01*
X172229308Y-97043629D01*
X172377285Y-97134903D01*
X172377290Y-97134905D01*
X172542326Y-97189592D01*
X172644184Y-97199999D01*
X172644197Y-97200000D01*
X172687500Y-97200000D01*
X173187500Y-97200000D01*
X173230803Y-97200000D01*
X173230815Y-97199999D01*
X173332673Y-97189592D01*
X173497709Y-97134905D01*
X173497714Y-97134903D01*
X173645691Y-97043629D01*
X173768629Y-96920691D01*
X173859903Y-96772714D01*
X173859905Y-96772709D01*
X173914592Y-96607673D01*
X173924999Y-96505815D01*
X173925000Y-96505802D01*
X173925000Y-96250000D01*
X173187500Y-96250000D01*
X173187500Y-97200000D01*
X172687500Y-97200000D01*
X172687500Y-95750000D01*
X173187500Y-95750000D01*
X173925000Y-95750000D01*
X173925000Y-95494197D01*
X173924999Y-95494184D01*
X173914592Y-95392326D01*
X173859905Y-95227290D01*
X173859903Y-95227285D01*
X173768629Y-95079308D01*
X173645691Y-94956370D01*
X173497714Y-94865096D01*
X173497709Y-94865094D01*
X173332673Y-94810407D01*
X173230815Y-94800000D01*
X173187500Y-94800000D01*
X173187500Y-95750000D01*
X172687500Y-95750000D01*
X172687500Y-94800000D01*
X172644184Y-94800000D01*
X172542326Y-94810407D01*
X172377290Y-94865094D01*
X172377285Y-94865096D01*
X172229308Y-94956370D01*
X172106369Y-95079309D01*
X172106364Y-95079315D01*
X172105829Y-95080184D01*
X172105306Y-95080654D01*
X172101888Y-95084977D01*
X172101149Y-95084392D01*
X172053879Y-95126906D01*
X171984916Y-95138125D01*
X171920835Y-95110278D01*
X171898586Y-95084601D01*
X171898507Y-95084664D01*
X171897111Y-95082898D01*
X171894758Y-95080183D01*
X171894028Y-95079000D01*
X171894027Y-95078999D01*
X171894026Y-95078997D01*
X171771003Y-94955974D01*
X171771002Y-94955973D01*
X171771001Y-94955972D01*
X171721901Y-94925686D01*
X171675178Y-94873738D01*
X171663000Y-94820149D01*
X171663000Y-92207927D01*
X171682685Y-92140888D01*
X171721901Y-92102390D01*
X171818656Y-92042712D01*
X171912319Y-91949049D01*
X171973642Y-91915564D01*
X172043334Y-91920548D01*
X172087681Y-91949049D01*
X172181344Y-92042712D01*
X172330666Y-92134814D01*
X172497203Y-92189999D01*
X172599991Y-92200500D01*
X173225008Y-92200499D01*
X173225016Y-92200498D01*
X173225019Y-92200498D01*
X173281302Y-92194748D01*
X173327797Y-92189999D01*
X173494334Y-92134814D01*
X173643656Y-92042712D01*
X173767712Y-91918656D01*
X173859814Y-91769334D01*
X173914999Y-91602797D01*
X173925500Y-91500009D01*
X173925499Y-90499992D01*
X173914999Y-90397203D01*
X173859814Y-90230666D01*
X173767712Y-90081344D01*
X173643656Y-89957288D01*
X173643655Y-89957287D01*
X173571902Y-89913029D01*
X173525178Y-89861081D01*
X173513000Y-89807491D01*
X173513000Y-87195270D01*
X173532685Y-87128231D01*
X173571903Y-87089731D01*
X173646003Y-87044026D01*
X173769026Y-86921003D01*
X173860362Y-86772925D01*
X173915087Y-86607775D01*
X173925500Y-86505848D01*
X173925500Y-85494152D01*
X173915087Y-85392225D01*
X173860362Y-85227075D01*
X173860358Y-85227069D01*
X173860357Y-85227066D01*
X173769028Y-85079000D01*
X173769027Y-85078999D01*
X173769026Y-85078997D01*
X173646003Y-84955974D01*
X173646002Y-84955973D01*
X173646001Y-84955972D01*
X173596901Y-84925686D01*
X173550178Y-84873738D01*
X173538000Y-84820149D01*
X173538000Y-83426560D01*
X173538001Y-83426547D01*
X173538001Y-83258444D01*
X173497076Y-83105714D01*
X173497073Y-83105709D01*
X173418024Y-82968790D01*
X173418018Y-82968782D01*
X172087590Y-81638355D01*
X172087588Y-81638352D01*
X171968717Y-81519481D01*
X171968716Y-81519480D01*
X171881904Y-81469360D01*
X171881904Y-81469359D01*
X171881900Y-81469358D01*
X171831785Y-81440423D01*
X171679057Y-81399499D01*
X171520943Y-81399499D01*
X171513347Y-81399499D01*
X171513331Y-81399500D01*
X159186670Y-81399500D01*
X159186654Y-81399499D01*
X159179058Y-81399499D01*
X159020943Y-81399499D01*
X158944579Y-81419961D01*
X158868214Y-81440423D01*
X158868209Y-81440426D01*
X158731290Y-81519475D01*
X158731282Y-81519481D01*
X155811981Y-84438782D01*
X155811979Y-84438785D01*
X155761861Y-84525594D01*
X155761859Y-84525596D01*
X155732925Y-84575709D01*
X155732924Y-84575710D01*
X155722113Y-84616058D01*
X155691999Y-84728443D01*
X155691999Y-84728445D01*
X155691999Y-84896546D01*
X155692000Y-84896559D01*
X155692000Y-87503329D01*
X155691999Y-87503347D01*
X155691999Y-87669053D01*
X155691998Y-87669053D01*
X155732923Y-87821783D01*
X155732924Y-87821787D01*
X155759505Y-87867827D01*
X155759506Y-87867827D01*
X155811977Y-87958711D01*
X155811981Y-87958716D01*
X155930849Y-88077584D01*
X155930855Y-88077589D01*
X156107640Y-88254374D01*
X156107661Y-88254397D01*
X156114183Y-88260919D01*
X156136547Y-88293824D01*
X156136785Y-88293684D01*
X156139017Y-88297459D01*
X156140302Y-88299349D01*
X156140756Y-88300400D01*
X156224416Y-88441861D01*
X156229202Y-88448031D01*
X156226756Y-88449927D01*
X156253357Y-88498642D01*
X156248373Y-88568334D01*
X156227569Y-88600703D01*
X156229202Y-88601969D01*
X156224417Y-88608137D01*
X156140755Y-88749603D01*
X156140754Y-88749606D01*
X156094902Y-88907426D01*
X156094901Y-88907432D01*
X156092000Y-88944298D01*
X156092000Y-89375701D01*
X156094901Y-89412567D01*
X156094902Y-89412573D01*
X156140754Y-89570393D01*
X156140755Y-89570396D01*
X156224417Y-89711862D01*
X156224423Y-89711870D01*
X156340629Y-89828076D01*
X156340633Y-89828079D01*
X156340635Y-89828081D01*
X156482102Y-89911744D01*
X156485088Y-89912611D01*
X156487151Y-89913928D01*
X156489264Y-89914843D01*
X156489116Y-89915183D01*
X156543974Y-89950212D01*
X156573186Y-90013682D01*
X156574500Y-90031689D01*
X156574500Y-92807491D01*
X156554815Y-92874530D01*
X156515598Y-92913029D01*
X156443844Y-92957287D01*
X156319789Y-93081342D01*
X156227687Y-93230663D01*
X156227686Y-93230666D01*
X156172501Y-93397203D01*
X156172501Y-93397204D01*
X156172500Y-93397204D01*
X156162000Y-93499983D01*
X156162000Y-94112402D01*
X156142315Y-94179441D01*
X156125681Y-94200083D01*
X155874481Y-94451282D01*
X155874480Y-94451284D01*
X155839024Y-94512696D01*
X155795423Y-94588215D01*
X155754499Y-94740943D01*
X155754499Y-94740945D01*
X155754499Y-94909046D01*
X155754500Y-94909059D01*
X155754500Y-102299618D01*
X155734815Y-102366657D01*
X155682011Y-102412412D01*
X155612853Y-102422356D01*
X155593610Y-102418004D01*
X155452101Y-102373908D01*
X155381572Y-102367500D01*
X155375000Y-102367500D01*
X154875000Y-102367500D01*
X154874999Y-102367499D01*
X154868436Y-102367500D01*
X154868417Y-102367501D01*
X154797897Y-102373908D01*
X154797892Y-102373909D01*
X154635603Y-102424481D01*
X154490122Y-102512427D01*
X154369928Y-102632621D01*
X154369925Y-102632625D01*
X154289130Y-102766275D01*
X154237602Y-102813462D01*
X154168743Y-102825300D01*
X154104414Y-102798031D01*
X154077475Y-102767220D01*
X153992317Y-102629156D01*
X153868345Y-102505184D01*
X153719124Y-102413143D01*
X153719119Y-102413141D01*
X153552697Y-102357994D01*
X153552690Y-102357993D01*
X153449986Y-102347500D01*
X153000000Y-102347500D01*
X153000000Y-103272500D01*
X152500000Y-103272500D01*
X152500000Y-102347500D01*
X152050028Y-102347500D01*
X152050012Y-102347501D01*
X151947302Y-102357994D01*
X151780880Y-102413141D01*
X151780875Y-102413143D01*
X151631654Y-102505184D01*
X151507684Y-102629154D01*
X151415643Y-102778375D01*
X151415641Y-102778380D01*
X151360494Y-102944802D01*
X151360493Y-102944809D01*
X151350000Y-103047513D01*
X145550831Y-103047513D01*
X145473735Y-102918886D01*
X145239615Y-102603212D01*
X145143774Y-102497468D01*
X143545462Y-104095779D01*
X143462388Y-103987514D01*
X143300176Y-103825302D01*
X143191909Y-103742226D01*
X144790220Y-102143914D01*
X144790220Y-102143913D01*
X144684483Y-102048078D01*
X144368803Y-101813954D01*
X144031709Y-101611907D01*
X143676420Y-101443868D01*
X143676404Y-101443861D01*
X143306394Y-101311470D01*
X142925153Y-101215974D01*
X142536395Y-101158306D01*
X142143845Y-101139021D01*
X141751294Y-101158306D01*
X141362536Y-101215974D01*
X140981295Y-101311470D01*
X140611285Y-101443861D01*
X140611269Y-101443868D01*
X140255980Y-101611907D01*
X139918886Y-101813954D01*
X139603212Y-102048073D01*
X139497468Y-102143913D01*
X139497468Y-102143914D01*
X141095780Y-103742226D01*
X140987514Y-103825302D01*
X140825302Y-103987514D01*
X140742226Y-104095780D01*
X139143914Y-102497468D01*
X139143913Y-102497468D01*
X139048073Y-102603212D01*
X138813954Y-102918886D01*
X138611907Y-103255980D01*
X138443868Y-103611269D01*
X138443861Y-103611285D01*
X138311470Y-103981295D01*
X138215974Y-104362536D01*
X138158306Y-104751294D01*
X138139021Y-105143845D01*
X137500500Y-105143845D01*
X137500500Y-75143845D01*
X138139021Y-75143845D01*
X138158306Y-75536395D01*
X138215974Y-75925153D01*
X138311470Y-76306394D01*
X138443861Y-76676404D01*
X138443868Y-76676420D01*
X138611907Y-77031709D01*
X138813954Y-77368803D01*
X139048078Y-77684483D01*
X139143913Y-77790220D01*
X139143914Y-77790220D01*
X140742225Y-76191908D01*
X140825302Y-76300176D01*
X140987514Y-76462388D01*
X141095779Y-76545463D01*
X139497468Y-78143774D01*
X139603212Y-78239615D01*
X139918886Y-78473735D01*
X140255980Y-78675782D01*
X140611269Y-78843821D01*
X140611285Y-78843828D01*
X140981295Y-78976219D01*
X141362536Y-79071715D01*
X141751294Y-79129383D01*
X142143845Y-79148668D01*
X142536395Y-79129383D01*
X142925153Y-79071715D01*
X143306394Y-78976219D01*
X143676404Y-78843828D01*
X143676420Y-78843821D01*
X144031709Y-78675782D01*
X144368803Y-78473735D01*
X144684483Y-78239611D01*
X144790220Y-78143775D01*
X144790220Y-78143773D01*
X143191909Y-76545463D01*
X143300176Y-76462388D01*
X143462388Y-76300176D01*
X143545463Y-76191910D01*
X145143773Y-77790220D01*
X145143775Y-77790220D01*
X145239611Y-77684483D01*
X145473735Y-77368803D01*
X145675782Y-77031709D01*
X145843821Y-76676420D01*
X145843828Y-76676404D01*
X145976219Y-76306394D01*
X146071715Y-75925153D01*
X146116239Y-75625000D01*
X166995176Y-75625000D01*
X167014461Y-76017550D01*
X167072129Y-76406308D01*
X167167625Y-76787549D01*
X167300016Y-77157559D01*
X167300023Y-77157575D01*
X167468062Y-77512864D01*
X167670109Y-77849958D01*
X167904233Y-78165638D01*
X168000068Y-78271375D01*
X168000069Y-78271375D01*
X169598381Y-76673064D01*
X169681457Y-76781331D01*
X169843669Y-76943543D01*
X169951934Y-77026618D01*
X168353623Y-78624929D01*
X168459367Y-78720770D01*
X168775041Y-78954890D01*
X169112135Y-79156937D01*
X169467424Y-79324976D01*
X169467440Y-79324983D01*
X169837450Y-79457374D01*
X170218691Y-79552870D01*
X170607449Y-79610538D01*
X171000000Y-79629823D01*
X171392550Y-79610538D01*
X171781308Y-79552870D01*
X172162549Y-79457374D01*
X172532559Y-79324983D01*
X172532575Y-79324976D01*
X172887864Y-79156937D01*
X173224958Y-78954890D01*
X173540638Y-78720766D01*
X173646375Y-78624930D01*
X173646375Y-78624928D01*
X172048064Y-77026618D01*
X172156331Y-76943543D01*
X172318543Y-76781331D01*
X172401618Y-76673065D01*
X173999928Y-78271375D01*
X173999930Y-78271375D01*
X174095766Y-78165638D01*
X174329890Y-77849958D01*
X174531937Y-77512864D01*
X174699976Y-77157575D01*
X174699983Y-77157559D01*
X174832374Y-76787549D01*
X174927870Y-76406308D01*
X174985538Y-76017550D01*
X175004823Y-75625000D01*
X174985538Y-75232449D01*
X174927870Y-74843691D01*
X174832374Y-74462450D01*
X174699983Y-74092440D01*
X174699976Y-74092424D01*
X174531937Y-73737135D01*
X174329890Y-73400041D01*
X174095770Y-73084367D01*
X173999929Y-72978623D01*
X172401617Y-74576934D01*
X172318543Y-74468669D01*
X172156331Y-74306457D01*
X172048064Y-74223381D01*
X173646375Y-72625069D01*
X173646375Y-72625068D01*
X173540638Y-72529233D01*
X173224958Y-72295109D01*
X172887864Y-72093062D01*
X172532575Y-71925023D01*
X172532559Y-71925016D01*
X172162549Y-71792625D01*
X171781308Y-71697129D01*
X171392550Y-71639461D01*
X171000000Y-71620176D01*
X170607449Y-71639461D01*
X170218691Y-71697129D01*
X169837450Y-71792625D01*
X169467440Y-71925016D01*
X169467424Y-71925023D01*
X169112135Y-72093062D01*
X168775041Y-72295109D01*
X168459367Y-72529228D01*
X168353623Y-72625068D01*
X168353623Y-72625069D01*
X169951935Y-74223381D01*
X169843669Y-74306457D01*
X169681457Y-74468669D01*
X169598381Y-74576935D01*
X168000069Y-72978623D01*
X168000068Y-72978623D01*
X167904228Y-73084367D01*
X167670109Y-73400041D01*
X167468062Y-73737135D01*
X167300023Y-74092424D01*
X167300016Y-74092440D01*
X167167625Y-74462450D01*
X167072129Y-74843691D01*
X167014461Y-75232449D01*
X166995176Y-75625000D01*
X146116239Y-75625000D01*
X146129383Y-75536395D01*
X146148668Y-75143845D01*
X146129383Y-74751294D01*
X146071715Y-74362536D01*
X145976219Y-73981295D01*
X145843828Y-73611285D01*
X145843821Y-73611269D01*
X145675782Y-73255980D01*
X145473735Y-72918886D01*
X145239615Y-72603212D01*
X145143774Y-72497468D01*
X143545462Y-74095779D01*
X143462388Y-73987514D01*
X143300176Y-73825302D01*
X143191909Y-73742226D01*
X144790220Y-72143914D01*
X144790220Y-72143913D01*
X144684483Y-72048078D01*
X144368803Y-71813954D01*
X144031709Y-71611907D01*
X143676420Y-71443868D01*
X143676404Y-71443861D01*
X143306394Y-71311470D01*
X142925153Y-71215974D01*
X142536395Y-71158306D01*
X142143845Y-71139021D01*
X141751294Y-71158306D01*
X141362536Y-71215974D01*
X140981295Y-71311470D01*
X140611285Y-71443861D01*
X140611269Y-71443868D01*
X140255980Y-71611907D01*
X139918886Y-71813954D01*
X139603212Y-72048073D01*
X139497468Y-72143913D01*
X139497468Y-72143914D01*
X141095780Y-73742226D01*
X140987514Y-73825302D01*
X140825302Y-73987514D01*
X140742226Y-74095780D01*
X139143914Y-72497468D01*
X139143913Y-72497468D01*
X139048073Y-72603212D01*
X138813954Y-72918886D01*
X138611907Y-73255980D01*
X138443868Y-73611269D01*
X138443861Y-73611285D01*
X138311470Y-73981295D01*
X138215974Y-74362536D01*
X138158306Y-74751294D01*
X138139021Y-75143845D01*
X137500500Y-75143845D01*
X137500500Y-70624500D01*
X137520185Y-70557461D01*
X137572989Y-70511706D01*
X137624500Y-70500500D01*
X176375500Y-70500500D01*
X176442539Y-70520185D01*
G37*
%TD.AperFunction*%
%TD*%
M02*
